<svg width="550" height="405" viewBox="0 0 550 405" fill="none" xmlns="http://www.w3.org/2000/svg">
<path d="M131.296 129.077C131.646 129.776 131.646 130.126 131.646 130.126C131.646 130.301 131.471 130.475 131.296 130.475H111.548C111.373 130.475 111.198 130.475 111.198 130.65V130.825C111.198 131 111.373 131 111.548 131H150.695C150.87 131 151.044 131 151.044 130.825V130.65C151.044 130.475 150.87 130.475 150.695 130.475H136.19C135.49 130.475 135.316 130.301 134.966 129.602L89.0033 4.99512H88.479L46.7105 119.465C44.0891 126.631 40.9433 130.475 34.3023 130.475H24.5155C24.3408 130.475 24.166 130.475 24.166 130.65V130.825C24.166 131 24.3408 131 24.5155 131H64.3617C64.5364 131 64.7112 131 64.7112 130.825V130.65C64.7112 130.475 64.5364 130.475 64.3617 130.475H54.0506C50.2058 130.475 46.1862 128.553 46.1862 125.058C46.1862 123.31 47.0601 121.038 47.5843 119.465L62.0897 79.6192H113.121L131.296 129.077ZM87.6052 10.0633L112.946 79.0949H62.2645L87.6052 10.0633Z" opacity="0.8" fill="white"/>
<path d="M150.577 7.26705C150.403 7.26705 150.228 7.26705 150.228 7.44181V7.61657C150.228 7.79133 150.403 7.79133 150.577 7.79133H169.627C169.801 7.79133 169.976 7.96609 169.976 8.14086V130.126C169.976 130.301 169.801 130.475 169.627 130.475H150.577C150.403 130.475 150.228 130.475 150.228 130.65V130.825C150.228 131 150.403 131 150.577 131H226.6L237.26 95.6974L236.561 95.5227C227.299 125.932 220.483 130.475 206.327 130.475H173.297C173.122 130.475 172.947 130.301 172.947 130.126V8.14086C172.947 7.96609 173.122 7.79133 173.297 7.79133H192.346C192.521 7.79133 192.695 7.79133 192.695 7.61657V7.44181C192.695 7.26705 192.521 7.26705 192.346 7.26705H150.577Z" opacity="0.8" fill="white"/>
<path d="M310.038 131C310.213 131 310.388 131 310.388 130.825V130.65C310.388 130.475 310.213 130.475 310.038 130.475H289.241C289.067 130.475 288.892 130.301 288.892 130.126V8.14086C288.892 8.14086 288.892 7.96609 289.067 7.96609C289.067 7.96609 289.067 7.79133 289.241 7.79133H310.912C325.068 7.79133 330.835 11.9857 338.525 37.5012L339.224 37.3264L330.311 7.26705H244.502L235.589 37.3264L236.288 37.5012C243.978 11.9857 249.745 7.79133 263.901 7.79133H285.571C285.746 7.79133 285.921 7.96609 285.921 8.14086V130.126C285.921 130.301 285.746 130.475 285.571 130.475H264.775C264.6 130.475 264.425 130.475 264.425 130.65V130.825C264.425 131 264.6 131 264.775 131H310.038Z" opacity="0.8" fill="white"/>
<path d="M416.478 131L427.138 95.6974L426.439 95.5227C417.177 125.932 410.361 130.475 396.205 130.475H363.175C363 130.475 362.825 130.301 362.825 130.126V65.2886H393.234C397.079 65.2886 404.244 65.9876 404.244 74.2015V85.3864C404.244 85.5611 404.244 85.7359 404.419 85.7359H404.594C404.768 85.7359 404.768 85.5611 404.768 85.3864V44.6665C404.768 44.4917 404.768 44.3169 404.594 44.3169H404.419C404.244 44.3169 404.244 44.4917 404.244 44.6665V55.8513C404.244 64.0652 397.079 64.7643 393.234 64.7643H362.825V8.14086C362.825 7.96609 363 7.79133 363.175 7.79133H392.71C406.866 7.79133 413.507 11.9857 421.196 37.5012L421.895 37.3264L412.982 7.26705H340.455C340.281 7.26705 340.106 7.26705 340.106 7.44181V7.61657C340.106 7.79133 340.281 7.79133 340.455 7.79133H359.505C359.679 7.79133 359.854 7.96609 359.854 8.14086V130.126C359.854 130.301 359.679 130.475 359.505 130.475H340.455C340.281 130.475 340.106 130.475 340.106 130.65V130.825C340.106 131 340.281 131 340.455 131H416.478Z" opacity="0.8" fill="white"/>
<path d="M508.418 38.8993C508.418 59.6961 492.69 70.3567 472.767 70.3567H450.921V8.14086C450.921 7.96609 451.096 7.79133 451.271 7.79133H472.767C490.942 7.79133 508.418 18.1024 508.418 38.8993ZM523.623 131.874C526.419 131.874 529.04 129.602 529.04 129.252C529.04 129.077 529.04 128.903 528.866 128.903C528.691 128.903 528.516 129.077 528.341 129.252C527.642 129.951 525.895 131.349 523.623 131.349C518.555 131.349 513.137 130.301 505.273 112.999L494.088 88.1826C488.845 76.6482 480.806 72.2791 474.689 70.881C496.36 69.4829 511.914 57.9485 511.914 38.8993C511.914 18.8014 495.136 7.26705 472.767 7.26705H428.551C428.377 7.26705 428.202 7.26705 428.202 7.44181V7.61657C428.202 7.79133 428.377 7.79133 428.551 7.79133H447.601C447.775 7.79133 447.95 7.96609 447.95 8.14086V130.126C447.95 130.301 447.775 130.475 447.601 130.475H428.551C428.377 130.475 428.202 130.475 428.202 130.65V130.825C428.202 131 428.377 131 428.551 131H472.067C472.242 131 472.417 131 472.417 130.825V130.65C472.417 130.475 472.242 130.475 472.067 130.475H451.271C451.096 130.475 450.921 130.301 450.921 130.126V70.881H469.796C474.165 70.881 484.301 73.1529 491.466 89.5807L502.476 114.572C509.642 130.65 516.457 131.874 523.623 131.874Z" opacity="0.8" fill="white"/>
<path fill-rule="evenodd" clip-rule="evenodd" d="M130.836 129.276L112.772 80.1192H62.4398L48.0565 119.63C47.983 119.85 47.9039 120.081 47.8222 120.319C47.6064 120.949 47.3718 121.633 47.169 122.335C46.8887 123.305 46.6862 124.256 46.6862 125.058C46.6862 126.583 47.5546 127.797 48.9394 128.652C50.3312 129.512 52.2021 129.975 54.0506 129.975H64.3617C64.3662 129.975 64.3714 129.975 64.3772 129.975C64.4481 129.975 64.6129 129.974 64.7601 130.023C64.854 130.054 64.978 130.116 65.0758 130.242C65.177 130.372 65.2112 130.52 65.2112 130.65V130.825C65.2112 130.955 65.177 131.103 65.0758 131.233C64.978 131.359 64.854 131.421 64.7601 131.452C64.6129 131.501 64.4481 131.5 64.3772 131.5C64.3714 131.5 64.3662 131.5 64.3617 131.5H24.5155C24.511 131.5 24.5058 131.5 24.5 131.5C24.4291 131.5 24.2643 131.501 24.1171 131.452C24.0232 131.421 23.8992 131.359 23.8014 131.233C23.7002 131.103 23.666 130.955 23.666 130.825V130.65C23.666 130.52 23.7002 130.372 23.8014 130.242C23.8992 130.116 24.0232 130.054 24.1171 130.023C24.2643 129.974 24.4291 129.975 24.5 129.975C24.5058 129.975 24.511 129.975 24.5155 129.975H34.3023C37.5127 129.975 39.8298 129.052 41.6684 127.296C43.5284 125.519 44.9381 122.855 46.241 119.294L88.1292 4.49512H89.3518L135.426 129.402C135.598 129.744 135.681 129.851 135.747 129.901C135.788 129.932 135.869 129.975 136.19 129.975H150.509C150.53 129.975 150.548 129.975 150.562 129.975C150.568 129.975 150.573 129.975 150.577 129.975H150.695C150.71 129.975 150.734 129.975 150.763 129.975H169.476V8.29133H150.577C150.573 8.29133 150.568 8.29136 150.562 8.2914C150.491 8.29184 150.326 8.29288 150.179 8.24383C150.085 8.21252 149.961 8.1503 149.863 8.02458C149.762 7.89453 149.728 7.74672 149.728 7.61657V7.44181C149.728 7.31165 149.762 7.16385 149.863 7.0338C149.961 6.90808 150.085 6.84586 150.179 6.81455C150.326 6.7655 150.491 6.76653 150.562 6.76698C150.568 6.76701 150.573 6.76705 150.577 6.76705H192.346L192.362 6.76698C192.432 6.76653 192.597 6.7655 192.744 6.81455C192.838 6.84586 192.962 6.90808 193.06 7.0338C193.161 7.16385 193.195 7.31166 193.195 7.44181V7.61657C193.195 7.74672 193.161 7.89453 193.06 8.02457C192.962 8.1503 192.838 8.21251 192.744 8.24383C192.597 8.29288 192.432 8.29184 192.362 8.2914L192.346 8.29133H173.447V129.975H206.327C213.343 129.975 218.42 128.852 222.914 124.06C227.458 119.216 231.452 110.582 236.083 95.377L236.221 94.9223L237.891 95.3396L226.971 131.5H150.763C150.742 131.5 150.725 131.5 150.71 131.5C150.705 131.5 150.699 131.5 150.695 131.5H150.577C150.562 131.5 150.538 131.5 150.509 131.5H111.548C111.543 131.5 111.538 131.5 111.532 131.5C111.461 131.5 111.297 131.501 111.149 131.452C111.055 131.421 110.931 131.359 110.834 131.233C110.733 131.103 110.698 130.955 110.698 130.825V130.65C110.698 130.52 110.733 130.372 110.834 130.242C110.931 130.116 111.055 130.054 111.149 130.023C111.297 129.974 111.461 129.975 111.532 129.975C111.538 129.975 111.543 129.975 111.548 129.975H131.114C131.079 129.838 131.005 129.613 130.849 129.301L130.836 129.276ZM226.6 131L237.26 95.6974L236.561 95.5227C236.561 95.5226 236.561 95.5227 236.561 95.5227C227.299 125.931 220.483 130.475 206.327 130.475H173.297C173.122 130.475 172.947 130.301 172.947 130.126V8.14086C172.947 7.96609 173.122 7.79133 173.297 7.79133H192.346C192.521 7.79133 192.695 7.79133 192.695 7.61657V7.44181C192.695 7.26705 192.521 7.26705 192.346 7.26705H150.577C150.403 7.26705 150.228 7.26705 150.228 7.44181V7.61657C150.228 7.79133 150.403 7.79133 150.577 7.79133H169.627C169.801 7.79133 169.976 7.96609 169.976 8.14086V130.126C169.976 130.301 169.801 130.475 169.627 130.475H136.19C135.49 130.475 135.316 130.301 134.966 129.602L89.0033 4.99512H88.479L46.7105 119.465C44.0891 126.631 40.9433 130.475 34.3023 130.475H24.5155C24.3408 130.475 24.166 130.475 24.166 130.65V130.825C24.166 131 24.3408 131 24.5155 131H64.3617C64.5364 131 64.7112 131 64.7112 130.825V130.65C64.7112 130.475 64.5364 130.475 64.3617 130.475H54.0506C50.2058 130.475 46.1862 128.553 46.1862 125.058C46.1862 123.549 46.8376 121.649 47.353 120.146C47.4345 119.908 47.5127 119.68 47.5843 119.465L62.0897 79.6192H113.121L131.296 129.077C131.646 129.776 131.646 130.126 131.646 130.126C131.646 130.301 131.471 130.475 131.296 130.475H111.548C111.373 130.475 111.198 130.475 111.198 130.65V130.825C111.198 131 111.373 131 111.548 131H226.6ZM112.946 79.0949H62.2645L87.6052 10.0633L112.946 79.0949ZM112.23 78.5949L87.6052 11.5142L62.9807 78.5949H112.23ZM289.392 8.46609V129.975H310.038L310.054 129.975C310.125 129.975 310.29 129.974 310.437 130.023C310.531 130.054 310.655 130.116 310.753 130.242C310.854 130.372 310.888 130.52 310.888 130.65V130.825C310.888 130.955 310.854 131.103 310.753 131.233C310.655 131.359 310.531 131.421 310.437 131.452C310.29 131.501 310.125 131.5 310.054 131.5L310.038 131.5H264.775L264.759 131.5C264.688 131.5 264.523 131.501 264.376 131.452C264.282 131.421 264.158 131.359 264.06 131.233C263.959 131.103 263.925 130.955 263.925 130.825V130.65C263.925 130.52 263.959 130.372 264.06 130.242C264.158 130.116 264.282 130.054 264.376 130.023C264.535 129.97 264.716 129.975 264.775 129.975H285.421V8.29133H263.901C256.87 8.29133 252.057 9.33389 248.026 13.4287C243.949 17.5694 240.612 24.8851 236.767 37.6454L236.629 38.1018L234.961 37.6848L244.129 6.76705H330.684L339.852 37.6848L338.184 38.1018L338.046 37.6454C334.201 24.8851 330.864 17.5694 326.787 13.4287C322.756 9.33389 317.943 8.29133 310.912 8.29133H289.567V8.46609H289.392ZM288.892 8.14086V130.126C288.892 130.301 289.067 130.475 289.241 130.475H310.038C310.213 130.475 310.388 130.475 310.388 130.65V130.825C310.388 131 310.213 131 310.038 131H264.775C264.6 131 264.425 131 264.425 130.825V130.65C264.425 130.475 264.6 130.475 264.775 130.475H285.571C285.746 130.475 285.921 130.301 285.921 130.126V8.14086C285.921 7.96609 285.746 7.79133 285.571 7.79133H263.901C249.745 7.79133 243.978 11.9857 236.288 37.5012L235.589 37.3264L244.502 7.26705H330.311L339.224 37.3264L338.525 37.5012C330.835 11.9857 325.068 7.79133 310.912 7.79133H289.241C289.067 7.79133 289.067 7.96609 289.067 7.96609C288.892 7.96609 288.892 8.14086 288.892 8.14086ZM416.849 131.5H340.455C340.396 131.5 340.216 131.505 340.057 131.452C339.963 131.421 339.839 131.359 339.741 131.233C339.64 131.103 339.606 130.955 339.606 130.825V130.65C339.606 130.52 339.64 130.372 339.741 130.242C339.839 130.116 339.963 130.054 340.057 130.023C340.204 129.974 340.369 129.975 340.44 129.975L340.455 129.975H359.354V8.29133H340.455L340.44 8.2914C340.369 8.29184 340.204 8.29288 340.057 8.24383C339.963 8.21252 339.839 8.1503 339.741 8.02458C339.64 7.89453 339.606 7.74672 339.606 7.61657V7.44181C339.606 7.31165 339.64 7.16385 339.741 7.0338C339.839 6.90808 339.963 6.84586 340.057 6.81455C340.204 6.7655 340.369 6.76653 340.44 6.76698L340.455 6.76705H413.356L422.523 37.6848L420.855 38.1018L420.717 37.6454C416.874 24.8933 413.321 17.5784 409.031 13.4377C404.779 9.334 399.74 8.29133 392.71 8.29133H363.325V64.2643H393.234C395.143 64.2643 397.79 64.0869 399.947 62.946C401.016 62.3805 401.958 61.5819 402.636 60.4521C403.313 59.322 403.744 57.8305 403.744 55.8513V44.6665L403.744 44.6509C403.744 44.58 403.743 44.4152 403.792 44.2681C403.823 44.1741 403.885 44.0501 404.011 43.9523C404.141 43.8512 404.289 43.8169 404.419 43.8169H404.594C404.724 43.8169 404.872 43.8512 405.002 43.9523C405.127 44.0501 405.19 44.1741 405.221 44.2681C405.27 44.4152 405.269 44.5801 405.269 44.6509L405.268 44.6665V85.3864C405.268 85.4454 405.274 85.6255 405.221 85.7848C405.19 85.8787 405.127 86.0028 405.002 86.1006C404.872 86.2017 404.724 86.2359 404.594 86.2359H404.419C404.289 86.2359 404.141 86.2017 404.011 86.1006C403.885 86.0028 403.823 85.8787 403.792 85.7848C403.743 85.6377 403.744 85.4729 403.744 85.402L403.744 85.3864V74.2015C403.744 72.2224 403.313 70.7308 402.636 69.6007C401.958 68.4709 401.016 67.6723 399.947 67.1068C397.79 65.9659 395.143 65.7886 393.234 65.7886H363.325V129.975H396.205C403.221 129.975 408.298 128.852 412.792 124.06C417.336 119.216 421.33 110.582 425.961 95.377L426.099 94.9223L427.769 95.3396L416.849 131.5ZM412.982 7.26705L421.895 37.3261L421.196 37.5012C413.507 11.9857 406.866 7.79133 392.71 7.79133H363.175C363 7.79133 362.825 7.96609 362.825 8.14086V64.7643H393.234C397.079 64.7643 404.244 64.0652 404.244 55.8513V44.6665C404.244 44.4917 404.244 44.3169 404.419 44.3169H404.594C404.768 44.3169 404.768 44.4917 404.768 44.6665V85.3864C404.768 85.5611 404.768 85.7359 404.594 85.7359H404.419C404.244 85.7359 404.244 85.5611 404.244 85.3864V74.2015C404.244 65.9876 397.079 65.2886 393.234 65.2886H362.825V130.126C362.825 130.301 363 130.475 363.175 130.475H396.205C410.361 130.475 417.177 125.932 426.439 95.523C426.439 95.5229 426.439 95.5231 426.439 95.523L427.138 95.6974L416.478 131H340.455C340.281 131 340.106 131 340.106 130.825V130.65C340.106 130.475 340.281 130.475 340.455 130.475H359.505C359.679 130.475 359.854 130.301 359.854 130.126V8.14086C359.854 7.96609 359.679 7.79133 359.505 7.79133H340.455C340.281 7.79133 340.106 7.79133 340.106 7.61657V7.44181C340.106 7.26705 340.281 7.26705 340.455 7.26705H412.982ZM486.718 68.3736C499.56 64.4054 508.418 54.5068 508.418 38.8993C508.418 18.1024 490.942 7.79133 472.767 7.79133H451.271C451.096 7.79133 450.921 7.96609 450.921 8.14086V70.3567H472.767C474.162 70.3567 475.537 70.3044 476.887 70.2C480.348 69.9324 483.646 69.3226 486.718 68.3736ZM491.466 89.5807C484.301 73.1529 474.165 70.881 469.796 70.881H450.921V130.126C450.921 130.301 451.096 130.475 451.271 130.475H472.067C472.242 130.475 472.417 130.475 472.417 130.65V130.825C472.417 131 472.242 131 472.067 131H428.551C428.377 131 428.202 131 428.202 130.825V130.65C428.202 130.475 428.377 130.475 428.551 130.475H447.601C447.775 130.475 447.95 130.301 447.95 130.126V8.14086C447.95 7.96609 447.775 7.79133 447.601 7.79133H428.551C428.377 7.79133 428.202 7.79133 428.202 7.61657V7.44181C428.202 7.26705 428.377 7.26705 428.551 7.26705H472.767C495.136 7.26705 511.914 18.8014 511.914 38.8993C511.914 54.1457 501.95 64.5782 486.861 68.8527C483.755 69.7326 480.431 70.3517 476.932 70.6979C476.697 70.7212 476.461 70.7433 476.224 70.7641C475.716 70.8088 475.204 70.8478 474.689 70.881C475.173 70.9915 475.668 71.1207 476.174 71.2704C482.059 73.0148 489.259 77.5602 494.088 88.1826L505.273 112.999C513.137 130.301 518.555 131.349 523.623 131.349C525.895 131.349 527.642 129.951 528.341 129.252C528.516 129.077 528.691 128.903 528.866 128.903C529.04 128.903 529.04 129.077 529.04 129.252C529.04 129.602 526.419 131.874 523.623 131.874C516.457 131.874 509.642 130.65 502.476 114.572L491.466 89.5807ZM477.429 71.1496C487.189 70.1147 495.608 66.956 501.746 61.8951C508.457 56.3619 512.414 48.5753 512.414 38.8993C512.414 28.6951 508.147 20.641 501.034 15.1507C493.935 9.67065 484.031 6.76705 472.767 6.76705H428.551L428.536 6.76698C428.465 6.76653 428.3 6.7655 428.153 6.81455C428.059 6.84586 427.935 6.90808 427.837 7.0338C427.736 7.16385 427.702 7.31165 427.702 7.44181V7.61657C427.702 7.74672 427.736 7.89453 427.837 8.02458C427.935 8.1503 428.059 8.21252 428.153 8.24383C428.3 8.29288 428.465 8.29184 428.536 8.2914L428.551 8.29133H447.45V129.975H428.551L428.536 129.975C428.465 129.975 428.3 129.974 428.153 130.023C428.059 130.054 427.935 130.116 427.837 130.242C427.736 130.372 427.702 130.52 427.702 130.65V130.825C427.702 130.955 427.736 131.103 427.837 131.233C427.935 131.359 428.059 131.421 428.153 131.452C428.312 131.505 428.492 131.5 428.551 131.5H472.067L472.083 131.5C472.154 131.5 472.319 131.501 472.466 131.452C472.56 131.421 472.684 131.359 472.782 131.233C472.883 131.103 472.917 130.955 472.917 130.825V130.65C472.917 130.52 472.883 130.372 472.782 130.242C472.684 130.116 472.56 130.054 472.466 130.023C472.307 129.97 472.126 129.975 472.067 129.975H451.421V71.381H469.796C471.895 71.381 475.423 71.9271 479.307 74.4879C483.189 77.0476 487.457 81.6402 491.008 89.7806L491.009 89.7823L502.019 114.774L502.02 114.775C505.62 122.855 509.165 127.279 512.773 129.669C516.394 132.067 520.011 132.374 523.623 132.374C525.147 132.374 526.593 131.758 527.64 131.121C528.167 130.8 528.608 130.465 528.923 130.18C529.079 130.038 529.212 129.902 529.311 129.779C529.36 129.718 529.409 129.652 529.448 129.582C529.477 129.528 529.54 129.406 529.54 129.252C529.54 129.193 529.546 129.013 529.493 128.854C529.462 128.76 529.399 128.636 529.274 128.538C529.144 128.437 528.996 128.403 528.866 128.403C528.615 128.403 528.42 128.525 528.303 128.612C528.182 128.703 528.069 128.818 527.988 128.899C527.324 129.563 525.697 130.849 523.623 130.849C521.146 130.849 518.658 130.597 515.812 128.275C512.931 125.924 509.65 121.421 505.728 112.792L494.544 87.9772L494.543 87.9757C489.948 77.8674 483.213 73.1619 477.429 71.1496ZM451.421 69.8567H472.767C482.645 69.8567 491.435 67.2135 497.747 62.0401C504.045 56.8772 507.918 49.1591 507.918 38.8993C507.918 28.6583 503.623 21.0255 497.101 15.9408C490.565 10.8453 481.767 8.29133 472.767 8.29133H451.421V69.8567Z" opacity="0.8" fill="white"/>
<path d="M128.999 331.998L144.99 279.045L143.941 278.783C130.048 324.396 119.824 331.212 98.5901 331.212H49.0446C48.7825 331.212 48.5203 330.95 48.5203 330.688V233.432H94.1336C99.9008 233.432 110.649 234.48 110.649 246.801V263.578C110.649 263.841 110.649 264.103 110.911 264.103H111.173C111.435 264.103 111.435 263.841 111.435 263.578V202.499C111.435 202.236 111.435 201.974 111.173 201.974H110.911C110.649 201.974 110.649 202.236 110.649 202.499V219.276C110.649 231.597 99.9008 232.645 94.1336 232.645H48.5203V147.71C48.5203 147.448 48.7825 147.186 49.0446 147.186H93.3472C114.581 147.186 124.542 153.477 136.077 191.751L137.125 191.488L123.756 146.399H14.9657C14.7036 146.399 14.4414 146.399 14.4414 146.662V146.924C14.4414 147.186 14.7036 147.186 14.9657 147.186H43.5396C43.8017 147.186 44.0638 147.448 44.0638 147.71V330.688C44.0638 330.95 43.8017 331.212 43.5396 331.212H14.9657C14.7036 331.212 14.4414 331.212 14.4414 331.474V331.736C14.4414 331.998 14.7036 331.998 14.9657 331.998H128.999Z" opacity="0.8" fill="white"/>
<path d="M309.115 258.598C309.115 258.336 309.378 258.073 309.64 258.073H335.592C335.854 258.073 336.116 258.073 336.116 257.811V257.549C336.116 257.287 335.854 257.287 335.592 257.287H270.318C270.056 257.287 269.794 257.287 269.794 257.549V257.811C269.794 258.073 270.056 258.073 270.318 258.073H304.135C304.397 258.073 304.659 258.336 304.659 258.598V297.133C304.659 297.919 304.135 303.687 302.3 305.784C292.6 317.056 264.026 334.882 235.977 334.882C172.8 334.882 152.877 278.521 152.877 238.937C152.877 199.353 175.421 142.992 235.977 142.992C268.221 142.992 292.6 160.817 308.067 207.217L309.115 206.955L294.697 152.167H294.435C293.387 155.574 290.503 156.885 288.668 156.885C283.687 156.885 268.483 142.205 235.977 142.205C170.965 142.205 147.634 198.304 147.634 238.937C147.634 279.569 170.965 335.668 235.977 335.668C273.464 335.668 298.105 311.027 303.086 311.027C307.018 311.027 307.805 313.648 307.805 318.891V321.513H309.115V258.598Z" opacity="0.8" fill="white"/>
<path d="M530.403 239.199C530.403 198.566 500.256 142.467 435.244 142.467C370.232 142.467 340.085 198.566 340.085 239.199C340.085 279.831 370.232 335.931 435.244 335.931C500.256 335.931 530.403 279.831 530.403 239.199ZM525.16 239.199C525.16 278.783 498.421 335.144 435.244 335.144C372.067 335.144 345.328 278.783 345.328 239.199C345.328 199.615 372.067 143.254 435.244 143.254C498.421 143.254 525.16 199.615 525.16 239.199Z" opacity="0.8" fill="white"/>
<path fill-rule="evenodd" clip-rule="evenodd" d="M129.148 332.198H14.9503C14.8319 332.198 14.6726 332.198 14.5428 332.155C14.4692 332.131 14.3895 332.088 14.3294 332.01C14.2679 331.931 14.2422 331.836 14.2422 331.736V331.474C14.2422 331.374 14.2679 331.279 14.3294 331.2C14.3895 331.122 14.4692 331.079 14.5428 331.055C14.6726 331.012 14.8319 331.012 14.9503 331.012H43.5403C43.6064 331.012 43.6891 330.977 43.7594 330.906C43.8296 330.836 43.8646 330.753 43.8646 330.687V147.71C43.8646 147.644 43.8296 147.561 43.7594 147.491C43.6891 147.421 43.6064 147.386 43.5403 147.386H14.9665C14.9612 147.386 14.9558 147.386 14.9503 147.386C14.8319 147.386 14.6726 147.386 14.5428 147.343C14.4692 147.318 14.3895 147.275 14.3294 147.198C14.2679 147.119 14.2422 147.024 14.2422 146.924V146.661C14.2422 146.561 14.2679 146.466 14.3294 146.387C14.3895 146.31 14.4692 146.267 14.5428 146.242C14.6726 146.199 14.8319 146.199 14.9503 146.199C14.9558 146.199 14.9612 146.199 14.9665 146.199H123.906L137.377 191.632L135.941 191.991L135.886 191.808C130.12 172.674 124.757 161.578 118.211 155.259C111.68 148.956 103.946 147.386 93.348 147.386H49.0454C48.9794 147.386 48.8966 147.421 48.8264 147.491C48.7561 147.561 48.7211 147.644 48.7211 147.71V232.445H94.1344C97.0126 232.445 101.099 232.182 104.461 230.404C106.138 229.517 107.633 228.254 108.709 226.46C109.785 224.665 110.45 222.326 110.45 219.276L110.45 202.482C110.449 202.364 110.449 202.204 110.493 202.075C110.517 202.001 110.56 201.921 110.637 201.861C110.716 201.8 110.812 201.774 110.912 201.774H111.174C111.274 201.774 111.369 201.8 111.448 201.861C111.526 201.921 111.568 202.001 111.593 202.075C111.636 202.204 111.636 202.364 111.636 202.482V263.594C111.636 263.713 111.636 263.872 111.593 264.002C111.568 264.076 111.526 264.155 111.448 264.215C111.369 264.277 111.274 264.303 111.174 264.303H110.912C110.812 264.303 110.716 264.277 110.637 264.215C110.56 264.155 110.517 264.076 110.493 264.002C110.449 263.872 110.449 263.713 110.45 263.594L110.45 246.801C110.45 243.75 109.785 241.412 108.709 239.617C107.633 237.822 106.138 236.56 104.461 235.673C101.099 233.895 97.0126 233.632 94.1344 233.632H48.7211V330.687C48.7211 330.753 48.7561 330.836 48.8264 330.906C48.8966 330.977 48.9794 331.012 49.0454 331.012H98.5909C109.183 331.012 116.981 329.313 123.873 321.965C130.785 314.597 136.804 301.531 143.751 278.724L143.806 278.543L145.243 278.902L129.148 332.198ZM136.078 191.75C124.543 153.477 114.582 147.186 93.348 147.186H49.0454C48.7832 147.186 48.5211 147.448 48.5211 147.71V232.645H94.1344C99.9016 232.645 110.65 231.596 110.65 219.276V202.498C110.65 202.236 110.65 201.974 110.912 201.974H111.174C111.436 201.974 111.436 202.236 111.436 202.498V263.578C111.436 263.84 111.436 264.103 111.174 264.103H110.912C110.65 264.103 110.65 263.84 110.65 263.578V246.801C110.65 234.48 99.9016 233.432 94.1344 233.432H48.5211V330.687C48.5211 330.95 48.7832 331.212 49.0454 331.212H98.5909C119.825 331.212 130.048 324.396 143.942 278.783L144.991 279.045L129 331.998H14.9665C14.7043 331.998 14.4422 331.998 14.4422 331.736V331.474C14.4422 331.212 14.7043 331.212 14.9665 331.212H43.5403C43.8025 331.212 44.0646 330.95 44.0646 330.687V147.71C44.0646 147.448 43.8025 147.186 43.5403 147.186H14.9665C14.7043 147.186 14.4422 147.186 14.4422 146.924V146.661C14.4422 146.399 14.7043 146.399 14.9665 146.399H123.757L137.126 191.488L136.078 191.75ZM302.149 305.653L302.15 305.652C302.585 305.155 302.951 304.428 303.255 303.59C303.558 302.754 303.793 301.823 303.972 300.928C304.331 299.134 304.46 297.509 304.46 297.133V258.597C304.46 258.531 304.425 258.449 304.354 258.378C304.284 258.308 304.201 258.273 304.135 258.273L270.303 258.273C270.184 258.273 270.025 258.273 269.895 258.23C269.821 258.206 269.742 258.163 269.682 258.085C269.62 258.006 269.594 257.911 269.594 257.811V257.549C269.594 257.449 269.62 257.354 269.682 257.275C269.742 257.197 269.821 257.154 269.895 257.13C270.031 257.085 270.199 257.087 270.319 257.087H335.593C335.713 257.087 335.881 257.085 336.017 257.13C336.09 257.154 336.17 257.197 336.23 257.275C336.291 257.354 336.317 257.449 336.317 257.549V257.811C336.317 257.911 336.291 258.006 336.23 258.085C336.17 258.163 336.09 258.206 336.017 258.23C335.887 258.273 335.727 258.273 335.609 258.273L309.641 258.273C309.574 258.273 309.492 258.308 309.421 258.378C309.351 258.449 309.316 258.531 309.316 258.597V321.712H307.605V318.891C307.605 316.267 307.406 314.348 306.744 313.086C306.416 312.462 305.977 312.002 305.39 311.695C304.801 311.387 304.049 311.227 303.087 311.227C302.812 311.227 302.451 311.313 301.997 311.49C301.545 311.666 301.015 311.926 300.407 312.261C299.191 312.931 297.679 313.889 295.879 315.045C295.633 315.204 295.381 315.366 295.124 315.531C291.631 317.778 287.165 320.651 281.817 323.524C270.331 329.693 254.766 335.868 235.978 335.868C203.405 335.868 181.26 321.811 167.265 302.658C153.276 283.513 147.435 259.286 147.435 238.937C147.435 218.587 153.276 194.36 167.265 175.216C181.26 156.063 203.405 142.005 235.978 142.005C252.263 142.005 264.217 145.683 272.725 149.361C276.444 150.97 279.504 152.578 281.974 153.877C282.327 154.062 282.669 154.242 282.998 154.414C284.316 155.102 285.438 155.672 286.385 156.07C287.337 156.469 288.088 156.685 288.669 156.685C290.425 156.685 293.225 155.423 294.245 152.108L294.288 151.966H294.852L309.361 207.1L307.936 207.456L307.878 207.28C300.151 184.101 290.206 168.081 278.185 157.857C266.167 147.635 252.06 143.191 235.978 143.191C205.773 143.191 185.056 157.243 171.884 176.234C158.706 195.233 153.078 219.177 153.078 238.937C153.078 258.701 158.052 282.645 170.902 301.641C183.745 320.628 204.46 334.682 235.978 334.682C249.962 334.682 264.087 330.237 275.932 324.381C287.778 318.523 297.322 311.263 302.149 305.653ZM308.068 207.217C292.601 160.817 268.222 142.991 235.978 142.991C175.422 142.991 152.878 199.353 152.878 238.937C152.878 278.521 172.801 334.882 235.978 334.882C264.027 334.882 292.601 317.056 302.3 305.784C304.135 303.686 304.66 297.919 304.66 297.133V258.597C304.66 258.335 304.398 258.073 304.135 258.073H270.319C270.057 258.073 269.794 258.073 269.794 257.811V257.549C269.794 257.287 270.057 257.287 270.319 257.287H335.593C335.855 257.287 336.117 257.287 336.117 257.549V257.811C336.117 258.073 335.855 258.073 335.593 258.073H309.641C309.378 258.073 309.116 258.335 309.116 258.597V321.512H307.805V318.891C307.805 313.648 307.019 311.027 303.087 311.027C301.756 311.027 299.023 312.785 295.016 315.362C284.024 322.433 263.45 335.668 235.978 335.668C170.966 335.668 147.635 279.569 147.635 238.937C147.635 198.304 170.966 142.205 235.978 142.205C259.339 142.205 273.764 149.787 281.88 154.053C285.057 155.723 287.268 156.885 288.669 156.885C290.504 156.885 293.387 155.574 294.436 152.166H294.698L309.116 206.954L309.116 206.955L308.068 207.217ZM507.359 175.469C523.052 194.61 530.604 218.838 530.604 239.199C530.604 259.559 523.052 283.788 507.359 302.929C491.66 322.075 467.815 336.13 435.245 336.13C402.675 336.13 378.83 322.075 363.131 302.929C347.438 283.788 339.886 259.559 339.886 239.199C339.886 218.838 347.438 194.61 363.131 175.469C378.83 156.322 402.675 142.267 435.245 142.267C467.815 142.267 491.66 156.322 507.359 175.469ZM503.736 301.894C518.288 282.894 524.961 258.951 524.961 239.199C524.961 219.446 518.288 195.504 503.736 176.504C489.188 157.51 466.766 143.453 435.245 143.453C403.724 143.453 381.302 157.51 366.754 176.504C352.202 195.504 345.529 219.446 345.529 239.199C345.529 258.951 352.202 282.894 366.754 301.894C381.302 320.887 403.724 334.944 435.245 334.944C466.766 334.944 489.188 320.887 503.736 301.894ZM435.245 142.467C500.257 142.467 530.404 198.566 530.404 239.199C530.404 279.831 500.257 335.93 435.245 335.93C370.233 335.93 340.086 279.831 340.086 239.199C340.086 198.566 370.233 142.467 435.245 142.467ZM435.245 335.144C498.422 335.144 525.161 278.783 525.161 239.199C525.161 199.615 498.422 143.253 435.245 143.253C372.068 143.253 345.329 199.615 345.329 239.199C345.329 278.783 372.068 335.144 435.245 335.144Z" opacity="0.8" fill="white"/>
</svg>
